# Blender 4.5.3 LTS
# www.blender.org
mtllib mouse_body.mtl
o Maus
v -0.818457 0.317521 -0.271592
v -0.729838 0.618601 -0.231326
v -0.135903 0.062842 0.276670
v 0.011406 0.536295 0.378539
v -0.781726 0.265533 -0.205058
v -0.512365 0.698785 -0.001366
v -0.565458 0.137710 0.031206
v -0.209169 0.697529 0.246647
v -0.010013 0.286272 0.426416
v -0.785674 0.459725 -0.226072
v -0.592302 0.451020 0.012596
v -0.353983 0.416742 0.330682
v -0.644434 0.317521 -0.573008
v -0.565253 0.618601 -0.516395
v 0.171652 0.062842 -0.256030
v 0.333527 0.536295 -0.179391
v 0.068917 -0.006897 0.039789
v 0.212584 0.555277 0.122735
v -0.745088 0.273408 -0.430177
v -0.684631 0.648491 -0.395272
v -0.568449 0.265533 -0.574465
v -0.257366 0.698785 -0.443038
v -0.415086 0.797718 -0.239650
v -0.730415 0.181161 -0.421705
v -0.255704 0.137710 -0.505304
v 0.109018 0.697529 -0.304469
v -0.050063 0.790842 -0.028904
v -0.475853 0.040484 -0.274734
v 0.364281 0.286272 -0.221879
v -0.588621 0.459725 -0.567377
v -0.736360 0.458398 -0.425137
v 0.265949 0.243522 0.153546
v -0.285243 0.451020 -0.519246
v 0.109388 0.416742 -0.471900
v 0.100199 0.548552 0.289923
v -0.064438 0.146566 0.370313
v -0.331375 0.081347 0.188171
v -0.651653 0.657104 -0.138443
v -0.808272 0.374573 -0.241866
v -0.796935 0.289405 -0.335662
v -0.039184 0.013962 0.195342
v -0.724237 0.638422 -0.307930
v -0.574889 0.733775 -0.331912
v -0.750942 0.224352 -0.433557
v -0.738995 0.356718 -0.426659
v 0.215870 0.091706 0.124633
v -0.814230 0.298952 -0.249654
v -0.357726 0.720343 0.129194
v -0.231312 0.822481 -0.133548
v -0.650836 0.115122 -0.375760
v -0.475806 0.773278 -0.107532
v -0.782477 0.205524 -0.317710
v -0.696205 0.346195 -0.082550
v -0.711375 0.206924 -0.109962
v -0.080095 0.618934 0.343618
v 0.103827 0.693882 0.059944
v -0.198258 -0.014295 -0.114464
v -0.476619 0.262648 0.208181
v -0.551415 0.063793 -0.129317
v -0.134859 0.769287 0.117876
v 0.009021 0.430827 0.426833
v -0.762741 0.550274 -0.229818
v -0.729122 0.556426 -0.420958
v 0.264611 0.402238 0.152773
v -0.538377 0.579781 0.041694
v -0.271131 0.571916 0.333513
v -0.187306 0.352880 0.424283
v -0.481199 0.444832 0.176652
v -0.785060 0.459517 -0.326505
v -0.707928 0.455859 -0.118925
v 0.143140 0.251631 0.323642
v 0.301180 0.548552 -0.058187
v 0.288482 0.146566 -0.240962
v -0.002726 0.081347 -0.381065
v -0.445722 0.657104 -0.495127
v -0.613598 0.374573 -0.579051
v -0.689160 0.289405 -0.522335
v 0.149579 0.013961 -0.131606
v -0.628794 0.638422 -0.473243
v -0.623322 0.298952 -0.580317
v -0.066978 0.720343 -0.374397
v -0.331028 0.773278 -0.358294
v -0.666384 0.205524 -0.518790
v -0.419593 0.346195 -0.561657
v -0.450917 0.206924 -0.561088
v 0.257535 0.618934 -0.241174
v -0.058020 0.262648 -0.516854
v -0.387700 0.063793 -0.412881
v 0.034654 0.769287 -0.175729
v 0.374159 0.430827 -0.205604
v -0.580399 0.550274 -0.545644
v -0.233080 0.579781 -0.487095
v 0.153265 0.571916 -0.401563
v 0.273787 0.352880 -0.374353
v -0.087614 0.444832 -0.505057
v -0.675292 0.459517 -0.516630
v -0.456956 0.455859 -0.553622
v 0.351852 0.251631 -0.037858
v 0.143208 0.404431 0.325753
v -0.673408 0.561648 -0.105719
v -0.801386 0.246558 -0.338031
v -0.623971 0.714766 -0.224801
v -0.770855 0.552787 -0.331416
v -0.303314 0.797801 0.008227
v -0.712253 0.139128 -0.251920
v -0.404217 0.592260 0.196649
v -0.131185 0.502765 0.422668
v -0.289241 0.008987 0.041783
v 0.004119 0.677714 0.218781
v -0.273915 0.201777 0.332637
v -0.609563 0.311711 0.054047
v -0.791502 0.364648 -0.327297
v -0.769165 0.367619 -0.171804
v 0.095822 0.106207 0.287206
v 0.353714 0.404431 -0.038855
v -0.428260 0.561648 -0.530329
v -0.693436 0.246558 -0.525005
v -0.506670 0.714766 -0.427974
v -0.672443 0.552787 -0.501872
v -0.144532 0.797801 -0.266791
v -0.574296 0.139128 -0.490869
v -0.031806 0.592260 -0.448387
v 0.300449 0.502765 -0.324944
v -0.108435 0.008987 -0.271381
v 0.191529 0.677714 -0.105823
v 0.151115 0.201777 -0.403536
v -0.257976 0.311711 -0.554920
v -0.679199 0.364648 -0.521812
v -0.533369 0.367619 -0.580215
v 0.296638 0.106207 -0.060619
vn 0.8503 -0.1896 0.4909
vn 0.8515 0.1825 0.4916
vn 0.7137 0.1574 0.6826
vn 0.6558 -0.2166 0.7231
vn 0.7353 0.5283 0.4245
vn 0.6243 0.5255 0.5780
vn 0.4077 0.5061 0.7600
vn 0.3426 0.1732 0.9234
vn 0.2112 -0.2198 0.9524
vn -0.7666 0.2173 0.6043
vn -0.7223 0.3247 0.6106
vn -0.7554 0.2734 0.5955
vn -0.7700 0.1676 0.6156
vn -0.5937 0.6307 0.4997
vn -0.6926 0.5755 0.4350
vn -0.7973 0.5346 0.2803
vn -0.8999 0.3111 0.3057
vn -0.9339 0.1970 0.2985
vn -0.6374 -0.6770 -0.3680
vn -0.8017 -0.5977 -0.0040
vn -0.9454 -0.2430 -0.2172
vn -0.8418 -0.2350 -0.4860
vn -0.8524 -0.3037 0.4257
vn -0.9463 -0.1656 0.2776
vn -0.9964 0.0679 -0.0499
vn -0.9287 0.0740 -0.3634
vn -0.8603 0.1147 -0.4967
vn -0.3901 0.8970 0.2079
vn -0.5435 0.8330 0.1033
vn -0.1978 0.9736 -0.1142
vn -0.3808 0.8981 -0.2199
vn -0.6263 0.6906 -0.3616
vn -0.7564 0.6505 -0.0689
vn -0.9300 0.3155 -0.1885
vn -0.9622 0.1325 -0.2380
vn -0.8234 0.3099 -0.4754
vn -0.8637 0.0726 -0.4987
vn -0.1735 0.7723 0.6111
vn 0.0987 0.9224 0.3735
vn -0.1819 0.9427 0.2797
vn -0.4321 0.7263 0.5346
vn 0.2663 0.9515 0.1538
vn 0.0047 1.0000 0.0027
vn -0.2318 -0.9635 -0.1338
vn -0.4275 -0.8889 0.1647
vn -0.6286 -0.7703 0.1076
vn -0.4150 -0.8777 -0.2396
vn -0.6231 -0.6042 0.4967
vn -0.7897 -0.4049 0.4608
vn -0.6084 0.0855 0.7890
vn -0.4444 0.4525 0.7732
vn -0.6437 0.4241 0.6371
vn -0.7494 0.2100 0.6279
vn -0.1289 0.3301 0.9351
vn -0.2996 -0.0937 0.9495
vn 0.1257 0.6863 0.7164
vn 0.2359 -0.9622 0.1362
vn 0.0724 -0.9250 0.3730
vn -0.2318 -0.9501 0.2089
vn -0.0667 -0.9970 -0.0385
vn -0.1683 -0.7933 0.5852
vn -0.4117 -0.7426 0.5283
vn 0.3877 0.7897 0.4755
vn 0.5291 0.7917 0.3055
vn 0.0159 -0.5667 0.8237
vn -0.4291 -0.4243 0.7974
vn -0.6769 -0.2259 0.7005
vn -0.7966 0.0032 0.6045
vn -0.7970 0.0700 0.5999
vn -0.9712 0.1374 0.1945
vn -0.9325 0.1301 -0.3369
vn -0.8636 0.0742 -0.4986
vn -0.8172 0.0534 0.5739
vn 0.6557 -0.6532 0.3786
vn 0.4507 -0.6359 0.6266
vn 0.9542 -0.2166 0.2064
vn 0.9480 0.1574 0.2767
vn 0.9304 -0.2198 -0.2933
vn 0.9710 0.1732 -0.1649
vn 0.8620 0.5061 -0.0270
vn 0.8127 0.5255 0.2517
vn 0.1400 0.2173 -0.9660
vn 0.1481 0.1676 -0.9747
vn 0.1380 0.2734 -0.9520
vn 0.1676 0.3247 -0.9308
vn -0.2085 0.1970 -0.9580
vn -0.1852 0.3111 -0.9322
vn -0.1559 0.5346 -0.8306
vn 0.0304 0.5755 -0.8173
vn 0.1359 0.6307 -0.7640
vn -0.6608 -0.2430 -0.7101
vn -0.4043 -0.5977 -0.6923
vn -0.7791 0.0740 -0.6226
vn -0.5415 0.0679 -0.8380
vn -0.2327 -0.1656 -0.9583
vn -0.0575 -0.3037 -0.9510
vn -0.1823 0.8330 -0.5223
vn -0.0150 0.8970 -0.4418
vn -0.4379 0.6505 -0.6206
vn -0.6872 0.1325 -0.7142
vn -0.6282 0.3155 -0.7112
vn 0.4425 0.7723 -0.4558
vn 0.2469 0.7263 -0.6415
vn 0.1512 0.9427 -0.2974
vn 0.3728 0.9224 -0.1013
vn -0.2211 -0.7703 -0.5981
vn -0.0711 -0.8889 -0.4526
vn 0.0042 -0.4049 -0.9143
vn 0.1185 -0.6042 -0.7880
vn 0.3791 0.0855 -0.9214
vn 0.1690 0.2100 -0.9630
vn 0.2299 0.4241 -0.8760
vn 0.4474 0.4525 -0.7714
vn 0.6725 -0.0937 -0.7342
vn 0.7454 0.3301 -0.5792
vn 0.6833 0.6863 -0.2493
vn 0.0650 -0.9501 -0.3052
vn 0.3592 -0.9250 -0.1238
vn 0.2517 -0.7426 -0.6207
vn 0.4226 -0.7933 -0.4383
vn 0.6056 0.7897 0.0981
vn 0.4760 -0.4243 -0.7703
vn 0.7213 -0.5667 -0.3981
vn 0.2682 -0.2259 -0.9365
vn 0.1252 0.0032 -0.9921
vn 0.1210 0.0700 -0.9902
vn -0.7580 0.1301 -0.6392
vn -0.3171 0.1374 -0.9384
vn 0.0884 0.0534 -0.9947
vn 0.7679 -0.6359 0.0770
vt 0.037979 0.348436
vt 0.034320 0.260807
vt 0.113832 0.271195
vt 0.114893 0.334442
vt 0.065504 0.175487
vt 0.135573 0.208946
vt 0.181370 0.229208
vt 0.181539 0.270266
vt 0.186545 0.318448
vt 0.447812 0.262070
vt 0.421898 0.209596
vt 0.506405 0.213175
vt 0.521514 0.259833
vt 0.421021 0.152107
vt 0.509715 0.163210
vt 0.603250 0.179898
vt 0.596562 0.220199
vt 0.596748 0.260190
vt 0.161691 0.009261
vt 0.147414 0.041953
vt 0.138988 0.042386
vt 0.152149 0.009454
vt 0.133137 0.074644
vt 0.125827 0.075318
vt 0.114368 0.076483
vt 0.125028 0.043086
vt 0.135688 0.009689
vt 0.434784 0.090824
vt 0.525639 0.111863
vt 0.455524 0.027568
vt 0.547926 0.059962
vt 0.629477 0.105063
vt 0.615044 0.141747
vt 0.073604 0.075639
vt 0.050676 0.066930
vt 0.047418 0.038772
vt 0.074384 0.042976
vt 0.027850 0.054246
vt 0.021397 0.032572
vt 0.014945 0.010898
vt 0.044161 0.010614
vt 0.075164 0.010313
vt 0.274576 0.168416
vt 0.256929 0.106405
vt 0.342779 0.086943
vt 0.341642 0.152103
vt 0.233703 0.042236
vt 0.346288 0.019402
vt 0.453809 0.530017
vt 0.445225 0.459430
vt 0.540475 0.440627
vt 0.557212 0.508697
vt 0.418398 0.393673
vt 0.506061 0.378076
vt 0.608345 0.366592
vt 0.616180 0.414014
vt 0.629477 0.475563
vt 0.311252 0.281812
vt 0.286119 0.226671
vt 0.347902 0.212924
vt 0.377189 0.269134
vt 0.234824 0.250740
vt 0.249952 0.299621
vt 0.220881 0.201091
vt 0.160533 0.496844
vt 0.204181 0.442116
vt 0.319200 0.461838
vt 0.304566 0.528570
vt 0.239027 0.403292
vt 0.316860 0.401435
vt 0.185600 0.151050
vt 0.135325 0.098186
vt 0.207898 0.366161
vt 0.284321 0.348767
vt 0.364362 0.335805
vt 0.439269 0.322186
vt 0.506807 0.310397
vt 0.096010 0.077803
vt 0.102001 0.043896
vt 0.107992 0.009989
vt 0.558365 0.302091
vt 0.609616 0.342713
vt 0.604432 0.297464
vt 0.616351 0.332961
vt 0.074187 0.432247
vt 0.139647 0.395490
s 1
usemtl Material.001
f 32/1/1 64/2/2 99/3/3 71/4/4
f 64/2/2 18/5/5 35/6/6 99/3/3
f 99/3/3 35/6/6 4/7/7 61/8/8
f 71/4/4 99/3/3 61/8/8 9/9/9
f 11/10/10 65/11/11 100/12/12 70/13/13
f 65/11/11 6/14/14 38/15/15 100/12/12
f 100/12/12 38/15/15 2/16/16 62/17/17
f 70/13/13 100/12/12 62/17/17 10/18/18
f 24/19/19 52/20/20 101/21/21 44/22/22
f 52/20/20 5/23/23 47/24/24 101/21/21
f 101/21/21 47/24/24 1/25/25 40/26/26
f 44/22/22 101/21/21 40/26/26 19/27/27
f 6/14/14 51/28/28 102/29/29 38/15/15
f 51/28/28 23/30/30 43/31/31 102/29/29
f 102/29/29 43/31/31 20/32/32 42/33/33
f 38/15/15 102/29/29 42/33/33 2/16/16
f 10/34/18 62/35/17 103/36/34 69/37/35
f 62/35/17 2/38/16 42/39/33 103/36/34
f 103/36/34 42/39/33 20/40/32 63/41/36
f 69/37/35 103/36/34 63/41/36 31/42/37
f 8/43/38 60/44/39 104/45/40 48/46/41
f 60/44/39 27/47/42 49/48/43 104/45/40
f 104/45/40 49/48/43 23/30/30 51/28/28
f 48/46/41 104/45/40 51/28/28 6/14/14
f 28/49/44 59/50/45 105/51/46 50/52/47
f 59/50/45 7/53/48 54/54/49 105/51/46
f 105/51/46 54/54/49 5/55/23 52/56/20
f 50/52/47 105/51/46 52/56/20 24/57/19
f 12/58/50 66/59/51 106/60/52 68/61/53
f 66/59/51 8/43/38 48/46/41 106/60/52
f 106/60/52 48/46/41 6/14/14 65/11/11
f 68/61/53 106/60/52 65/11/11 11/10/10
f 9/9/9 61/8/8 107/62/54 67/63/55
f 61/8/8 4/7/7 55/64/56 107/62/54
f 107/62/54 55/64/56 8/43/38 66/59/51
f 67/63/55 107/62/54 66/59/51 12/58/50
f 17/65/57 41/66/58 108/67/59 57/68/60
f 41/66/58 3/69/61 37/70/62 108/67/59
f 108/67/59 37/70/62 7/53/48 59/50/45
f 57/68/60 108/67/59 59/50/45 28/49/44
f 4/7/7 35/6/6 109/71/63 55/64/56
f 35/6/6 18/5/5 56/72/64 109/71/63
f 109/71/63 56/72/64 27/47/42 60/44/39
f 55/64/56 109/71/63 60/44/39 8/43/38
f 3/69/61 36/73/65 110/74/66 37/70/62
f 36/73/65 9/9/9 67/63/55 110/74/66
f 110/74/66 67/63/55 12/58/50 58/75/67
f 37/70/62 110/74/66 58/75/67 7/53/48
f 7/53/48 58/75/67 111/76/68 54/54/49
f 58/75/67 12/58/50 68/61/53 111/76/68
f 111/76/68 68/61/53 11/10/10 53/77/69
f 54/54/49 111/76/68 53/77/69 5/55/23
f 1/25/25 39/78/70 112/79/71 40/26/26
f 39/78/70 10/34/18 69/37/35 112/79/71
f 112/79/71 69/37/35 31/42/37 45/80/72
f 40/26/26 112/79/71 45/80/72 19/27/27
f 5/55/23 53/77/69 113/81/73 47/82/24
f 53/77/69 11/10/10 70/13/13 113/81/73
f 113/81/73 70/13/13 10/18/18 39/83/70
f 47/82/24 113/81/73 39/83/70 1/84/25
f 17/65/57 46/85/74 114/86/75 41/66/58
f 46/85/74 32/1/1 71/4/4 114/86/75
f 114/86/75 71/4/4 9/9/9 36/73/65
f 41/66/58 114/86/75 36/73/65 3/69/61
f 32/1/1 98/4/76 115/3/77 64/2/2
f 98/4/76 29/9/78 90/8/79 115/3/77
f 115/3/77 90/8/79 16/7/80 72/6/81
f 64/2/2 115/3/77 72/6/81 18/5/5
f 33/10/82 97/13/83 116/12/84 92/11/85
f 97/13/83 30/18/86 91/17/87 116/12/84
f 116/12/84 91/17/87 14/16/88 75/15/89
f 92/11/85 116/12/84 75/15/89 22/14/90
f 24/19/19 44/22/22 117/21/91 83/20/92
f 44/22/22 19/27/27 77/26/93 117/21/91
f 117/21/91 77/26/93 13/25/94 80/24/95
f 83/20/92 117/21/91 80/24/95 21/23/96
f 22/14/90 75/15/89 118/29/97 82/28/98
f 75/15/89 14/16/88 79/33/99 118/29/97
f 118/29/97 79/33/99 20/32/32 43/31/31
f 82/28/98 118/29/97 43/31/31 23/30/30
f 30/34/86 96/37/100 119/36/101 91/35/87
f 96/37/100 31/42/37 63/41/36 119/36/101
f 119/36/101 63/41/36 20/40/32 79/39/99
f 91/35/87 119/36/101 79/39/99 14/38/88
f 26/43/102 81/46/103 120/45/104 89/44/105
f 81/46/103 22/14/90 82/28/98 120/45/104
f 120/45/104 82/28/98 23/30/30 49/48/43
f 89/44/105 120/45/104 49/48/43 27/47/42
f 28/49/44 50/52/47 121/51/106 88/50/107
f 50/52/47 24/57/19 83/56/92 121/51/106
f 121/51/106 83/56/92 21/55/96 85/54/108
f 88/50/107 121/51/106 85/54/108 25/53/109
f 34/58/110 95/61/111 122/60/112 93/59/113
f 95/61/111 33/10/82 92/11/85 122/60/112
f 122/60/112 92/11/85 22/14/90 81/46/103
f 93/59/113 122/60/112 81/46/103 26/43/102
f 29/9/78 94/63/114 123/62/115 90/8/79
f 94/63/114 34/58/110 93/59/113 123/62/115
f 123/62/115 93/59/113 26/43/102 86/64/116
f 90/8/79 123/62/115 86/64/116 16/7/80
f 17/65/57 57/68/60 124/67/117 78/66/118
f 57/68/60 28/49/44 88/50/107 124/67/117
f 124/67/117 88/50/107 25/53/109 74/70/119
f 78/66/118 124/67/117 74/70/119 15/69/120
f 16/7/80 86/64/116 125/71/121 72/6/81
f 86/64/116 26/43/102 89/44/105 125/71/121
f 125/71/121 89/44/105 27/47/42 56/72/64
f 72/6/81 125/71/121 56/72/64 18/5/5
f 15/69/120 74/70/119 126/74/122 73/73/123
f 74/70/119 25/53/109 87/75/124 126/74/122
f 126/74/122 87/75/124 34/58/110 94/63/114
f 73/73/123 126/74/122 94/63/114 29/9/78
f 25/53/109 85/54/108 127/76/125 87/75/124
f 85/54/108 21/55/96 84/77/126 127/76/125
f 127/76/125 84/77/126 33/10/82 95/61/111
f 87/75/124 127/76/125 95/61/111 34/58/110
f 13/25/94 77/26/93 128/79/127 76/78/128
f 77/26/93 19/27/27 45/80/72 128/79/127
f 128/79/127 45/80/72 31/42/37 96/37/100
f 76/78/128 128/79/127 96/37/100 30/34/86
f 21/55/96 80/82/95 129/81/129 84/77/126
f 80/82/95 13/84/94 76/83/128 129/81/129
f 129/81/129 76/83/128 30/18/86 97/13/83
f 84/77/126 129/81/129 97/13/83 33/10/82
f 17/65/57 78/66/118 130/86/130 46/85/74
f 78/66/118 15/69/120 73/73/123 130/86/130
f 130/86/130 73/73/123 29/9/78 98/4/76
f 46/85/74 130/86/130 98/4/76 32/1/1
