# Blender 4.5.3 LTS
# www.blender.org
mtllib mouse_tail.mtl
o Maus.005
v 0.086145 0.031449 0.078062
v 0.117512 0.016453 0.089209
v 0.092729 0.049063 0.084299
v 0.087570 0.024148 0.068160
v 0.118468 0.010242 0.079580
v 0.092787 0.023367 0.056035
v 0.123243 0.009901 0.067822
v 0.097092 0.024148 0.043556
v 0.127628 0.010242 0.055912
v 0.102705 0.031449 0.035274
v 0.133403 0.016453 0.048149
v 0.111773 0.049063 0.035095
v 0.142194 0.032705 0.048139
v 0.119230 0.066196 0.041672
v 0.148998 0.048730 0.054408
v 0.119991 0.072298 0.052420
v 0.149018 0.054374 0.064386
v 0.116085 0.072359 0.065051
v 0.144887 0.054375 0.076199
v 0.110470 0.072298 0.077020
v 0.102672 0.066196 0.084456
v 0.139989 0.054374 0.087714
v 0.133257 0.048730 0.095079
v 0.171908 0.044395 0.098819
v 0.176085 0.044462 0.088273
v 0.166237 0.039081 0.105771
v 0.256134 0.041568 0.129490
v 0.253484 0.035927 0.136338
v 0.355606 0.039611 0.166071
v 0.259580 0.041895 0.120587
v 0.263025 0.041568 0.111685
v 0.358406 0.040025 0.158836
v 0.457232 0.040867 0.197084
v 0.361206 0.039611 0.151600
v 0.363376 0.034831 0.145994
v 0.459839 0.040323 0.190350
v 0.625107 0.036638 0.236369
v 0.461875 0.035666 0.185088
v 0.462815 0.024559 0.182660
v 0.626618 0.031938 0.231009
v 0.796733 0.028210 0.261751
v 0.627295 0.020973 0.228606
v 0.626889 0.010018 0.230046
v 0.797275 0.017387 0.259413
v 0.796921 0.006577 0.260939
v 0.947596 0.016701 0.322136
v 0.947123 0.006942 0.323279
v 0.946885 0.026529 0.323855
v 1.087636 0.016014 0.408778
v 1.207906 0.016018 0.539268
v 1.087202 0.007042 0.409624
v 1.087004 0.025117 0.410010
v 1.084819 0.027666 0.414267
v 1.207319 0.021724 0.539847
v 1.265563 0.017401 0.792352
v 1.205291 0.023322 0.541848
v 1.201730 0.023655 0.545360
v 1.264915 0.017787 0.792674
v 1.263775 0.017867 0.793239
v 1.262635 0.017787 0.793804
v 1.261987 0.017401 0.794126
v 1.198169 0.023322 0.548872
v 1.077148 0.027666 0.429214
v 1.196141 0.021724 0.550873
v 1.074963 0.025117 0.433471
v 1.195554 0.016018 0.551452
v 1.074331 0.016014 0.434703
v 1.261799 0.016023 0.794219
v 1.195957 0.010394 0.551054
v 1.074765 0.007042 0.433857
v 1.198051 0.008692 0.548988
v 1.261928 0.014664 0.794155
v 1.262598 0.014253 0.793823
v 1.263775 0.014168 0.793239
v 1.201730 0.008338 0.545360
v 1.264952 0.014253 0.792655
v 1.205408 0.008692 0.541732
v 1.265622 0.014664 0.792322
v 1.207503 0.010394 0.539666
v 1.265751 0.016023 0.792259
v 1.084946 0.004328 0.414020
v 0.945143 0.003244 0.328067
v 1.080984 0.003763 0.421741
v 0.941993 0.002635 0.335682
v 1.077021 0.004328 0.429461
v 0.938844 0.003244 0.343297
v 0.791958 0.001818 0.282363
v 0.936863 0.006942 0.348085
v 0.936391 0.016701 0.349227
v 0.790686 0.006577 0.287856
v 0.619348 0.010018 0.256791
v 0.790332 0.017387 0.289383
v 0.618942 0.020973 0.258231
v 0.790874 0.028210 0.287044
v 0.619620 0.031938 0.255828
v 0.792119 0.032953 0.281667
v 0.937102 0.026529 0.347508
v 0.939031 0.030139 0.342845
v 0.941993 0.030730 0.335682
v 0.944956 0.030139 0.328519
v 0.793803 0.033619 0.274398
v 1.080984 0.028197 0.421741
v 0.623119 0.037243 0.243419
v 0.795487 0.032953 0.267128
v 0.621131 0.036638 0.250469
v 0.454626 0.040323 0.203818
v 0.452590 0.035666 0.209080
v 0.353436 0.034831 0.171678
v 0.451650 0.024559 0.211508
v 0.452167 0.013459 0.210172
v 0.352470 0.022877 0.174174
v 0.353052 0.010923 0.172669
v 0.252341 0.021196 0.139290
v 0.158025 0.024273 0.106137
v 0.253087 0.006457 0.137363
v 0.255787 0.000797 0.130387
v 0.152041 0.009419 0.100882
v 0.152666 0.003990 0.091901
v 0.156923 0.003853 0.080857
v 0.259580 0.000458 0.120587
v 0.161211 0.003990 0.069824
v 0.166794 0.009419 0.062762
v 0.263373 0.000797 0.110787
v 0.266072 0.006457 0.103812
v 0.361542 0.006144 0.150733
v 0.363760 0.010923 0.145002
v 0.358406 0.005730 0.158836
v 0.460209 0.008821 0.189394
v 0.457232 0.008288 0.197084
v 0.625342 0.005319 0.235533
v 0.462298 0.013459 0.183995
v 0.623119 0.004717 0.243419
v 0.795649 0.001818 0.266432
v 0.793803 0.001147 0.274398
v 0.620896 0.005319 0.251304
v 0.454256 0.008821 0.204774
v 0.355270 0.006144 0.166939
v 0.364342 0.022877 0.143497
v 0.266818 0.021196 0.101885
v 0.174757 0.024273 0.062905
v 0.265676 0.035927 0.104837
v 0.180582 0.039081 0.068704
v 0.180096 0.044395 0.077663
v 0.124005 0.032705 0.095134
vn -0.3601 -0.9117 0.1977
vn -0.4282 -0.5341 0.7289
vn -0.4851 -0.4789 0.7316
vn -0.4619 -0.8662 0.1905
vn -0.3242 -0.0265 0.9456
vn -0.3326 -0.0140 0.9430
vn -0.2576 -0.9611 -0.0997
vn -0.3590 -0.9230 -0.1389
vn -0.2133 -0.8662 -0.4518
vn -0.1332 -0.9117 -0.3886
vn 0.1338 -0.4789 -0.8676
vn 0.1741 -0.5341 -0.8273
vn 0.3889 -0.0140 -0.9212
vn 0.3968 -0.0265 -0.9175
vn 0.5596 0.4367 -0.7044
vn 0.5221 0.4597 -0.7184
vn 0.5628 0.8124 -0.1525
vn 0.4682 0.8676 -0.1675
vn 0.4661 0.8662 0.1804
vn 0.3660 0.9198 0.1417
vn 0.2335 0.8676 0.4390
vn 0.3135 0.8124 0.4916
vn -0.0976 0.4597 0.8827
vn -0.0604 0.4367 0.8976
vn -0.1969 0.5144 0.8346
vn 0.0304 0.9369 0.3484
vn 0.1472 0.9875 0.0570
vn -0.0897 0.9444 0.3162
vn 0.0227 0.9997 0.0088
vn -0.2697 0.5397 0.7975
vn -0.2908 0.5305 0.7962
vn -0.1192 0.9351 0.3338
vn 0.0053 1.0000 0.0020
vn 0.1466 0.9444 -0.2942
vn 0.2570 0.9369 -0.2372
vn 0.1366 0.9351 -0.3271
vn 0.0060 1.0000 0.0044
vn 0.1212 0.9324 -0.3404
vn -0.1113 0.9261 0.3604
vn 0.3209 0.5305 -0.7846
vn 0.3374 0.5398 -0.7712
vn 0.2729 0.5335 -0.8006
vn 0.0198 0.9998 0.0085
vn 0.1029 0.9276 -0.3592
vn 0.2011 0.5243 -0.8274
vn 0.3193 0.0496 -0.9463
vn 0.3802 0.0431 -0.9239
vn 0.2244 0.0443 -0.9735
vn 0.1264 0.9195 -0.3722
vn 0.2493 0.5104 -0.8230
vn 0.2827 0.0360 -0.9585
vn 0.1850 -0.4911 -0.8512
vn 0.2779 -0.4928 -0.8246
vn 0.2425 -0.4838 -0.8409
vn 0.4559 0.0300 -0.8895
vn 0.3931 -0.5039 -0.7691
vn 0.3892 0.5296 -0.7537
vn 0.6345 0.0238 -0.7726
vn 0.5423 -0.5212 -0.6591
vn 0.5348 0.5440 -0.6465
vn 0.7520 0.5273 -0.3956
vn 0.8820 0.0206 -0.4708
vn 0.7636 -0.5042 -0.4034
vn 0.1704 0.9361 -0.3077
vn 0.2140 0.9489 -0.2319
vn 0.3091 0.9423 -0.1285
vn 0.2887 0.9562 -0.0476
vn 0.8098 0.5593 -0.1771
vn 0.9747 0.0196 -0.2228
vn 0.0220 0.9997 0.0074
vn 0.0315 0.9994 0.0141
vn 0.0067 0.9997 0.0216
vn -0.1979 0.9691 0.1472
vn -0.3153 0.9432 0.1042
vn -0.6876 0.6008 0.4079
vn -0.8261 0.5132 0.2328
vn -0.1556 0.9597 0.2341
vn -0.4950 0.5789 0.6479
vn -0.8625 0.0218 0.5056
vn -0.9645 0.0193 0.2633
vn -0.6151 0.0242 0.7881
vn -0.5067 -0.5556 0.6592
vn -0.7025 -0.5778 0.4156
vn -0.8386 -0.4908 0.2363
vn -0.1617 -0.9583 0.2356
vn -0.2035 -0.9674 0.1507
vn -0.3231 -0.9403 0.1064
vn 0.0320 -0.9994 0.0141
vn 0.0065 -0.9997 0.0218
vn 0.3162 -0.9395 -0.1320
vn 0.2955 -0.9541 -0.0490
vn 0.8241 -0.5369 -0.1804
vn 0.2141 -0.9476 -0.2372
vn 0.0183 -0.9998 0.0056
vn 0.1633 -0.9368 -0.3094
vn 0.0093 -1.0000 -0.0003
vn -0.1410 -0.9454 0.2940
vn -0.3855 -0.5243 0.7592
vn -0.1032 -0.9362 0.3360
vn -0.0038 -1.0000 -0.0061
vn -0.2465 -0.5052 0.8271
vn -0.4556 0.0304 0.8897
vn -0.2810 0.0368 0.9590
vn -0.2055 -0.4828 0.8513
vn -0.1024 -0.9252 0.3654
vn -0.2233 0.0438 0.9738
vn -0.1820 0.5154 0.8374
vn -0.2300 0.5306 0.8158
vn -0.3743 0.5500 0.7466
vn -0.0684 0.9205 0.3848
vn -0.0828 0.9333 0.3495
vn -0.1342 0.9450 0.2983
vn 0.0173 0.9998 0.0029
vn 0.0205 0.9998 -0.0000
vn -0.2624 0.5246 0.8099
vn -0.3409 0.0431 0.9391
vn -0.3106 0.0490 0.9493
vn -0.2720 -0.4828 0.8324
vn -0.2824 -0.4978 0.8200
vn -0.3310 0.0268 0.9433
vn -0.2833 -0.5255 0.8023
vn -0.3195 -0.0098 0.9475
vn -0.3278 -0.5564 0.7635
vn -0.1022 -0.9466 0.3057
vn -0.0884 -0.9373 0.3371
vn -0.1962 -0.9485 0.2486
vn -0.0921 -0.9951 -0.0356
vn 0.0096 -0.9999 0.0037
vn 0.0223 -0.9485 -0.3159
vn 0.1303 -0.9466 -0.2949
vn 0.2716 -0.5564 -0.7853
vn 0.3306 -0.5255 -0.7839
vn 0.1615 -0.9373 -0.3088
vn 0.0351 -0.9993 0.0136
vn 0.3432 -0.4978 -0.7965
vn 0.1141 -0.9356 -0.3341
vn 0.0013 -1.0000 0.0033
vn 0.0634 -0.9307 -0.3603
vn -0.0200 -0.9998 -0.0035
vn 0.1030 -0.9231 -0.3706
vn -0.1130 -0.9289 0.3525
vn 0.3903 0.0268 -0.9203
vn 0.4017 -0.0098 -0.9157
vn 0.4163 0.5144 -0.7497
vt 0.942642 0.520643
vt 0.950703 0.520587
vt 0.951448 0.536798
vt 0.942924 0.536540
vt 0.961247 0.519602
vt 0.962703 0.536007
vt 0.936247 0.520139
vt 0.936233 0.535667
vt 0.973831 0.534449
vt 0.971688 0.518090
vt 0.982000 0.532536
vt 0.979457 0.516541
vt 0.988208 0.530470
vt 0.985457 0.515026
vt 0.969093 0.498200
vt 0.976227 0.497001
vt 0.981795 0.495975
vt 0.972429 0.463819
vt 0.977243 0.463055
vt 0.966277 0.464780
vt 0.966238 0.423363
vt 0.971923 0.422259
vt 0.976397 0.421224
vt 0.975551 0.379393
vt 0.971416 0.380699
vt 0.966199 0.381946
vt 0.977307 0.302545
vt 0.973349 0.305233
vt 0.968422 0.308667
vt 0.959349 0.383013
vt 0.958728 0.424503
vt 0.962148 0.308576
vt 0.975282 0.229768
vt 0.970645 0.235387
vt 0.964947 0.234138
vt 0.955736 0.309899
vt 0.952441 0.383528
vt 0.959031 0.236270
vt 0.967867 0.166691
vt 0.962107 0.179416
vt 0.972475 0.178721
vt 0.970787 0.099244
vt 0.965182 0.122562
vt 0.974304 0.122056
vt 0.976594 0.159905
vt 0.977905 0.090043
vt 0.980763 0.079590
vt 0.964297 0.090874
vt 0.964298 0.090874
vt 0.962135 0.081129
vt 0.959484 0.161140
vt 0.956546 0.154610
vt 0.954671 0.231406
vt 0.950957 0.228091
vt 0.950865 0.307309
vt 0.979913 0.152643
vt 0.979063 0.225696
vt 0.951149 0.425238
vt 0.958106 0.465993
vt 0.949856 0.466947
vt 0.959596 0.499605
vt 0.950011 0.500680
vt 0.943481 0.467177
vt 0.945270 0.425195
vt 0.942631 0.500945
vt 0.936729 0.500707
vt 0.938364 0.466953
vt 0.940533 0.424678
vt 0.947060 0.383212
vt 0.942702 0.382404
vt 0.947059 0.383212
vt 0.946830 0.305247
s 1
usemtl Material.001
f 5/1/1 2/2/2 1/3/3 4/4/4
f 2/2/2 144/5/5 3/6/6 1/3/3
f 7/7/7 5/1/1 4/4/4 6/8/8
f 7/7/7 6/8/8 8/4/9 9/1/10
f 9/1/10 8/4/9 10/3/11 11/2/12
f 11/2/12 10/3/11 12/6/13 13/5/14
f 13/5/14 12/6/13 14/9/15 15/10/16
f 15/10/16 14/9/15 16/11/17 17/12/18
f 17/12/18 16/11/17 18/13/19 19/14/20
f 22/12/21 19/14/20 18/13/19 20/11/22
f 23/10/23 22/12/21 20/11/22 21/9/24
f 26/15/25 24/16/26 22/12/21 23/10/23
f 24/16/26 25/17/27 19/14/20 22/12/21
f 25/17/27 24/16/26 27/18/28 30/19/29
f 24/16/26 26/15/25 28/20/30 27/18/28
f 27/18/28 28/20/30 108/21/31 29/22/32
f 30/19/29 27/18/28 29/22/32 32/23/33
f 25/17/27 30/19/29 31/18/34 143/16/35
f 30/19/29 32/23/33 34/22/36 31/18/34
f 32/23/33 33/24/37 36/25/38 34/22/36
f 32/23/33 29/22/32 106/25/39 33/24/37
f 31/18/34 34/22/36 35/21/40 141/20/41
f 34/22/36 36/25/38 38/26/42 35/21/40
f 33/24/37 103/27/43 37/28/44 36/25/38
f 36/25/38 37/28/44 40/29/45 38/26/42
f 35/21/40 38/26/42 39/30/46 138/31/47
f 38/26/42 40/29/45 42/32/48 39/30/46
f 37/28/44 104/33/49 41/34/50 40/29/45
f 40/29/45 41/34/50 44/35/51 42/32/48
f 39/30/46 42/32/48 43/36/52 131/37/53
f 42/32/48 44/35/51 45/38/54 43/36/52
f 44/35/51 46/39/55 47/40/56 45/38/54
f 41/34/50 48/41/57 46/39/55 44/35/51
f 46/39/55 49/42/58 51/43/59 47/40/56
f 48/41/57 52/44/60 49/42/58 46/39/55
f 49/42/58 52/44/60 54/44/61 50/42/62
f 51/43/59 49/42/58 50/42/62 79/43/63
f 100/45/64 53/46/65 52/44/60 48/41/57
f 52/44/60 53/46/65 56/46/66 54/44/61
f 54/44/61 56/46/66 58/46/67 55/44/68
f 50/42/62 54/44/61 55/44/68 80/42/69
f 53/46/65 102/47/70 57/47/71 56/46/66
f 56/46/66 57/47/71 59/47/72 58/46/67
f 57/47/71 62/46/73 60/46/74 59/47/72
f 62/46/73 64/44/75 61/44/76 60/46/74
f 63/46/77 65/44/78 64/44/75 62/46/73
f 102/47/70 63/46/77 62/46/73 57/47/71
f 64/44/75 66/42/79 68/42/80 61/44/76
f 65/44/78 67/42/81 66/42/79 64/44/75
f 67/42/81 70/43/82 69/43/83 66/42/79
f 66/42/79 69/43/83 72/43/84 68/42/80
f 70/43/82 85/48/85 71/49/86 69/43/83
f 69/43/83 71/49/86 73/48/87 72/43/84
f 71/49/86 75/50/88 74/50/89 73/48/87
f 75/50/88 77/48/90 76/48/91 74/50/89
f 77/48/90 79/43/63 78/43/92 76/48/91
f 79/43/63 50/42/62 80/42/69 78/43/92
f 81/48/93 51/43/59 79/43/63 77/48/90
f 83/50/94 81/48/93 77/48/90 75/50/88
f 47/40/56 51/43/59 81/48/93 82/51/95
f 82/51/95 81/48/93 83/50/94 84/52/96
f 86/51/97 84/52/96 83/50/94 85/48/85
f 85/48/85 83/50/94 75/50/88 71/49/86
f 88/40/98 86/51/97 85/48/85 70/43/82
f 87/53/99 134/54/100 84/52/96 86/51/97
f 90/38/101 87/53/99 86/51/97 88/40/98
f 89/39/102 88/40/98 70/43/82 67/42/81
f 92/35/103 90/38/101 88/40/98 89/39/102
f 91/36/104 135/55/105 87/53/99 90/38/101
f 93/32/106 91/36/104 90/38/101 92/35/103
f 95/29/107 93/32/106 92/35/103 94/34/108
f 94/34/108 92/35/103 89/39/102 97/41/109
f 105/28/110 95/29/107 94/34/108 96/33/111
f 96/33/111 94/34/108 97/41/109 98/45/112
f 98/45/112 97/41/109 65/44/78 63/46/77
f 97/41/109 89/39/102 67/42/81 65/44/78
f 99/56/113 98/45/112 63/46/77 102/47/70
f 101/57/114 96/33/111 98/45/112 99/56/113
f 101/57/114 99/56/113 100/45/64 104/33/49
f 99/56/113 102/47/70 53/46/65 100/45/64
f 103/27/43 101/57/114 104/33/49 37/28/44
f 103/27/43 105/28/110 96/33/111 101/57/114
f 104/33/49 100/45/64 48/41/57 41/34/50
f 33/24/37 106/25/39 105/28/110 103/27/43
f 106/25/39 107/26/115 95/29/107 105/28/110
f 29/22/32 108/21/31 107/26/115 106/25/39
f 108/21/31 111/31/116 109/30/117 107/26/115
f 107/26/115 109/30/117 93/32/106 95/29/107
f 109/30/117 110/37/118 91/36/104 93/32/106
f 111/31/116 112/58/119 110/37/118 109/30/117
f 113/59/120 115/60/121 112/58/119 111/31/116
f 28/20/30 113/59/120 111/31/116 108/21/31
f 114/61/122 117/62/123 115/60/121 113/59/120
f 26/15/25 114/61/122 113/59/120 28/20/30
f 115/60/121 116/63/124 137/64/125 112/58/119
f 117/62/123 118/65/126 116/63/124 115/60/121
f 118/65/126 117/62/123 2/2/2 5/1/1
f 117/62/123 114/61/122 144/5/5 2/2/2
f 119/66/127 118/65/126 5/1/1 7/7/7
f 118/65/126 119/66/127 120/67/128 116/63/124
f 121/65/129 123/63/130 120/67/128 119/66/127
f 119/66/127 7/7/7 9/1/10 121/65/129
f 121/65/129 9/1/10 11/2/12 122/62/131
f 122/62/131 124/60/132 123/63/130 121/65/129
f 123/63/130 125/64/133 127/68/134 120/67/128
f 124/60/132 126/58/135 125/64/133 123/63/130
f 126/58/135 131/37/53 128/69/136 125/64/133
f 125/64/133 128/69/136 129/70/137 127/68/134
f 128/71/136 130/55/138 132/72/139 129/70/137
f 131/37/53 43/36/52 130/55/138 128/71/136
f 138/31/47 39/30/46 131/37/53 126/58/135
f 130/55/138 133/53/140 134/54/100 132/72/139
f 43/36/52 45/38/54 133/53/140 130/55/138
f 45/38/54 47/40/56 82/51/95 133/53/140
f 133/53/140 82/51/95 84/52/96 134/54/100
f 135/55/105 132/72/139 134/54/100 87/53/99
f 136/69/141 129/70/137 132/72/139 135/55/105
f 110/37/118 136/69/141 135/55/105 91/36/104
f 137/64/125 127/68/134 129/70/137 136/69/141
f 112/58/119 137/64/125 136/69/141 110/37/118
f 116/63/124 120/67/128 127/68/134 137/64/125
f 139/59/142 138/31/47 126/58/135 124/60/132
f 141/20/41 35/21/40 138/31/47 139/59/142
f 140/61/143 139/59/142 124/60/132 122/62/131
f 142/15/144 141/20/41 139/59/142 140/61/143
f 143/16/35 31/18/34 141/20/41 142/15/144
f 140/61/143 13/5/14 15/10/16 142/15/144
f 142/15/144 15/10/16 17/12/18 143/16/35
f 143/16/35 17/12/18 19/14/20 25/17/27
f 122/62/131 11/2/12 13/5/14 140/61/143
f 114/61/122 26/15/25 23/10/23 144/5/5
f 144/5/5 23/10/23 21/9/24 3/6/6
